<?xml version="1.0" encoding="UTF-8" standalone="no"?>
<!-- Created with Inkscape (http://www.inkscape.org/) -->

<svg
   xmlns:dc="http://purl.org/dc/elements/1.1/"
   xmlns:cc="http://creativecommons.org/ns#"
   xmlns:rdf="http://www.w3.org/1999/02/22-rdf-syntax-ns#"
   xmlns:svg="http://www.w3.org/2000/svg"
   xmlns="http://www.w3.org/2000/svg"
   xmlns:sodipodi="http://sodipodi.sourceforge.net/DTD/sodipodi-0.dtd"
   xmlns:inkscape="http://www.inkscape.org/namespaces/inkscape"
   width="480"
   height="480"
   viewBox="0 0 480 480"
   id="svg2"
   version="1.1"
   inkscape:version="0.48.2 r9819"
   sodipodi:docname="TRBG logotyp2.svg">
  <defs
     id="defs4" />
  <sodipodi:namedview
     id="base"
     pagecolor="#ffffff"
     bordercolor="#666666"
     borderopacity="1.0"
     inkscape:pageopacity="0.0"
     inkscape:pageshadow="2"
     inkscape:zoom="0.60150393"
     inkscape:cx="359.33966"
     inkscape:cy="-140.28934"
     inkscape:document-units="px"
     inkscape:current-layer="svg2"
     showgrid="false"
     inkscape:window-width="1920"
     inkscape:window-height="1017"
     inkscape:window-x="1272"
     inkscape:window-y="-8"
     inkscape:window-maximized="1"
     fit-margin-top="0.2"
     fit-margin-left="0.2"
     fit-margin-right="0.2"
     fit-margin-bottom="0.2" />
  <metadata
     id="metadata7">
    <rdf:RDF>
      <cc:Work
         rdf:about="">
        <dc:format>image/svg+xml</dc:format>
        <dc:type
           rdf:resource="http://purl.org/dc/dcmitype/StillImage" />
        <dc:title></dc:title>
      </cc:Work>
    </rdf:RDF>
  </metadata>
  <g
     inkscape:label="Layer 1"
     inkscape:groupmode="layer"
     id="layer1"
     transform="translate(-12.707579,94.10826)" />
  <path
     id="path3344"
     d="M 82.905421,373.56626 C 14.815421,290.12726 27.258421,167.28826 110.69742,99.19826 194.13642,31.10826 316.97542,43.55126 385.06542,126.99026 440.45742,194.86926 443.77842,291.35626 393.18642,362.88326 z"
     inkscape:connector-curvature="0"
     style="fill:#ffffff;fill-opacity:1;stroke:#003c69;stroke-width:10;stroke-miterlimit:4;stroke-opacity:1;stroke-dasharray:none" />
  <path
     id="path3340"
     d="M 120.22542,313.66926 C 140.06342,313.15526 156.64242,302.81126 169.66842,283.27126 168.20342,281.51426 166.10342,279.16026 164.28342,278.01926 157.25842,273.60726 149.87542,272.46126 144.02242,274.87626 139.62242,276.64126 137.07842,279.37726 136.24142,283.23926 134.80042,289.86826 138.86242,297.78026 140.65142,299.67026 L 145.11642,304.39326 138.64142,304.07226 C 112.43542,302.76226 91.70842,290.37826 81.766421,270.09226 72.597421,251.38326 74.077421,228.54526 85.547421,211.91026 99.67342,191.40926 130.66142,180.16926 164.82742,193.69526 155.83642,183.67126 141.27442,172.33026 120.80642,171.81526 105.75042,171.44226 91.15342,177.42826 79.713421,188.67326 65.887421,202.26026 57.985421,222.10626 58.025421,243.11526 58.061421,263.83626 66.015421,283.48326 79.850421,297.02126 91.19142,308.12726 105.53042,314.03626 120.22542,313.66926 M 179.27242,341.00526 C 175.24842,337.68026 172.85142,333.91526 172.85142,329.60526 172.85142,326.29426 174.34642,321.57626 180.21742,317.23426 179.70842,309.47726 178.52942,302.98226 176.99742,297.58626 144.67842,345.33826 103.47442,332.85026 91.29042,327.62326 81.746421,323.52226 74.650421,317.74826 69.617421,312.61026 78.238421,335.36026 100.87142,378.44026 147.08342,370.79226 161.85442,368.32326 176.00842,355.06226 179.27242,341.00526 M 345.74742,313.66926 C 360.44342,314.03626 374.78342,308.11726 386.12642,297.01626 399.95842,283.47526 407.91142,263.82926 407.94842,243.11526 407.98442,222.09726 400.07942,202.25426 386.25642,188.67326 374.81242,177.42826 360.21242,171.44226 345.14842,171.81526 324.68142,172.33026 310.12742,183.67126 301.13842,193.69526 335.30242,180.17526 366.29242,191.41526 380.41742,211.91026 391.89042,228.54026 393.37942,251.37526 384.21342,270.08726 374.27442,290.37826 353.53842,302.76226 327.33042,304.07226 L 320.85342,304.39326 325.32242,299.67026 C 327.11242,297.78026 331.17442,289.86826 329.73142,283.23926 328.89342,279.37726 326.34742,276.64126 321.92742,274.86526 316.10042,272.45626 308.72042,273.60226 301.68542,278.01926 299.86642,279.16026 297.76742,281.51426 296.30242,283.27126 309.31342,302.81126 325.89842,313.15526 345.74742,313.66926 M 202.09642,211.82226 209.74442,233.17326 C 213.17042,242.02526 216.40942,250.38526 218.91142,260.80826 223.04542,278.08026 224.04242,292.28326 224.84342,303.70026 L 224.98542,305.71726 C 224.98542,305.71726 224.99542,305.91426 224.99842,305.95226 227.87642,305.86026 232.53142,305.71726 232.53142,305.71726 232.52842,305.71726 233.40542,305.82926 233.42542,305.71726 233.42542,305.71726 238.10242,305.86526 240.97842,305.95226 240.97842,305.91426 241.14342,303.57226 241.14342,303.57226 241.98442,291.59426 242.93742,278.01926 247.06842,260.80826 249.57142,250.36426 252.81542,241.98426 256.24842,233.11226 256.24842,233.11226 263.87442,211.83626 263.88042,211.82226 268.20842,198.22126 269.99042,185.15826 269.99042,172.86626 269.99042,123.02626 240.68742,85.88926 232.98242,76.99226 225.27342,85.84226 195.94942,122.80226 195.94942,172.69726 195.94942,185.02926 197.74242,198.14826 202.09642,211.82226 M 147.34642,162.55826 C 142.64642,153.02226 140.68642,143.97626 140.68642,135.62226 140.68642,115.82526 151.19142,99.97126 159.48042,90.49826 141.64942,98.93326 108.04142,119.63826 83.459421,160.16426 95.73042,152.22126 116.94642,146.10026 147.34642,162.55826 M 233.42542,339.09926 C 262.46042,339.09926 276.22942,332.05526 278.30942,329.60526 276.22342,327.15526 262.45542,320.10926 233.42542,320.10926 L 232.53142,320.10926 C 203.51542,320.10926 189.74142,327.15526 187.65942,329.60526 189.73942,332.05526 203.50442,339.09926 232.53142,339.09926 L 233.42542,339.09926 M 193.66242,353.33826 C 192.41042,358.06326 180.33742,396.88626 126.79142,390.13626 136.42442,397.00926 153.11442,407.76826 170.17542,413.51426 194.00642,401.93626 207.41542,381.24426 209.86042,351.87126 204.17442,351.05226 199.08042,349.93626 194.54342,348.56126 194.15842,350.75326 193.69542,353.31626 193.66242,353.33826 M 156.02842,255.06726 C 175.70942,260.82326 189.99742,281.05326 194.24942,309.18426 194.24942,309.18426 194.34642,310.12726 194.42742,310.86826 198.81142,309.52826 203.60142,308.41726 208.88242,307.61726 207.82842,292.84226 204.85342,258.41926 187.85842,228.69326 175.82642,205.01626 141.35542,198.73826 118.58142,208.94526 110.74742,212.46126 95.84142,221.94826 95.84142,243.06126 95.84142,249.39326 97.17942,256.77826 100.45842,265.35426 106.48042,277.02926 114.10342,282.02326 119.17842,284.38726 118.56842,282.34426 118.07642,280.11826 118.07642,277.68126 118.07642,273.18926 119.44542,268.24126 123.42842,263.64526 131.14842,254.72726 143.63642,251.44926 156.02842,255.06726 M 342.54242,263.64526 C 346.51842,268.24126 347.88842,273.17926 347.88842,277.67326 347.88842,280.11826 347.39242,282.35426 346.77742,284.39726 351.85342,282.06426 359.45242,277.12226 365.39742,265.61926 368.72142,256.93326 370.07842,249.46826 370.07842,243.07426 370.07842,221.90726 355.19842,212.44726 347.37242,208.94526 324.59842,198.73826 290.13942,205.01626 278.05842,228.81026 261.10742,258.41926 258.14242,292.86226 257.09342,307.61726 262.38442,308.41726 267.16942,309.52826 271.53842,310.86826 271.61442,310.19026 271.70542,309.38826 271.72942,309.18426 275.97342,281.05326 290.26142,260.82326 309.94242,255.06726 322.33542,251.44926 334.82742,254.73526 342.54242,263.64526 M 272.30342,353.33826 272.27842,353.41826 C 272.27842,353.41826 271.81942,350.80526 271.42442,348.56626 266.89042,349.93626 261.79142,351.05226 256.09942,351.87126 258.58342,381.25726 271.98942,401.94426 295.79242,413.51426 312.90542,407.75226 329.58042,396.99626 339.19242,390.12526 285.64342,396.88626 273.56042,358.06326 272.30342,353.33826 M 318.63442,162.55826 C 349.02542,146.09426 370.24242,152.22926 382.51642,160.16426 357.93142,119.63826 324.31742,98.93326 306.48742,90.49826 314.77942,99.97126 325.28342,115.82526 325.28342,135.63526 325.28342,143.97626 323.32642,153.02726 318.63442,162.55826 M 233.42542,353.49426 C 233.42542,353.49426 232.96742,353.46826 232.53142,353.49426 232.53142,353.49426 227.88442,353.35026 224.97942,353.26426 224.06742,376.70326 220.99642,401.16126 199.17642,421.94426 212.04542,424.86326 228.96342,425.25826 232.58742,425.27826 L 233.37342,425.27826 C 237.01042,425.25826 253.92542,424.86326 266.78942,421.94426 244.98442,401.16126 241.91142,376.70326 240.99642,353.26426 238.08142,353.35026 233.42542,353.49426 233.42542,353.49426 M 374.69042,327.62326 C 362.50142,332.84326 321.27942,345.32226 288.97842,297.58626 287.44842,302.96626 286.26742,309.46226 285.75542,317.24126 291.61442,321.57626 293.10942,326.29426 293.10942,329.60526 293.10942,333.91526 290.71542,337.67526 286.69342,341.00226 289.96742,355.06226 304.12342,368.33126 318.89142,370.79226 365.09142,378.44026 387.72742,335.36726 396.35042,312.61826 391.32142,317.75526 384.22642,323.52226 374.69242,327.62326 L 374.69042,327.62326 M 177.11342,183.39626 C 175.25342,175.26626 174.02942,167.37926 174.02942,160.04426 174.02942,117.58026 201.55842,88.73726 217.88642,75.27826 193.54542,81.50926 174.78542,94.96126 166.08442,114.15826 162.50642,122.05926 160.76242,130.43426 160.76242,138.92426 160.76242,154.05226 166.53042,169.49226 177.11342,183.39626 M 288.38742,183.39626 C 290.24842,175.26626 291.47242,167.37926 291.47242,160.04426 291.47242,117.58026 263.94642,88.73726 247.61542,75.27826 271.95942,81.50926 290.71742,94.96126 299.41942,114.15826 302.99842,122.05926 304.74142,130.43426 304.74142,138.92426 304.74142,154.05226 298.97342,169.49226 288.38742,183.39626"
     inkscape:connector-curvature="0"
     style="fill:#a4d7f4;fill-opacity:1" />
  <path
     id="path3336"
     d="M 406.24243,184.66427 C 404.25943,184.81327 399.89343,184.51027 397.62843,186.20727 396.51743,187.03927 396.36343,188.70227 395.48543,189.77827 394.25943,191.27927 391.98043,191.93327 391.19943,193.70727 390.67243,194.90527 391.55743,196.37527 391.19943,197.63527 389.51043,209.90927 380.73843,213.05627 377.98543,219.06427 371.69643,219.67227 367.84043,210.84227 365.12843,205.13527 363.68343,202.09427 365.85743,199.12027 363.69943,196.53527 361.69343,194.69027 363.52943,195.08827 358.34243,193.34927 357.29943,194.63327 360.72743,195.98527 360.84243,197.63527 361.04043,200.45827 358.58743,202.46327 358.62843,205.29227 360.95843,213.40527 367.87443,221.41627 368.69943,230.49227 368.97643,233.54027 364.10043,237.59527 366.55643,239.42127 367.88443,240.40727 369.38643,236.13627 370.84243,236.92127 374.72543,239.01427 373.13443,246.01627 371.55643,250.13527 369.02843,256.73927 361.85143,260.44927 356.55643,265.13527 346.25243,268.65227 324.48943,284.49827 317.27143,295.84927 310.89543,310.00927 313.42643,317.95327 319.41343,329.42127 322.95643,335.01527 330.80643,337.50227 331.55643,343.70627 331.71643,345.02827 330.91543,346.59727 329.77143,347.27827 303.24943,346.26227 287.64043,348.23427 266.19943,345.13527 255.91143,343.21127 247.00943,335.32727 236.55643,334.77827 215.79443,333.68627 207.87643,345.93727 175.84243,349.06427 166.04343,350.38127 156.03643,349.13727 146.19943,350.13527 124.70343,352.31627 103.61343,357.48027 82.271423,360.84927 59.803424,364.39627 35.897424,365.17527 14.771422,370.84927 7.292423,377.96027 7.798423,390.24127 8.699422,401.20627 43.954424,416.82727 99.26243,418.70827 145.12843,422.63527 192.46043,426.68827 240.14343,426.18027 287.62843,424.77827 318.17543,423.87627 348.81043,422.35727 379.05643,417.99227 401.95943,414.68727 435.14943,412.95927 446.91343,403.34927 446.86543,399.52227 441.60843,393.42327 444.41343,389.77827 446.30743,387.31827 450.67043,388.38327 453.69943,389.06427 454.63643,389.27427 455.24143,390.44227 456.19943,390.49227 461.52243,390.77327 468.18243,388.68327 470.84243,384.06427 472.58743,375.97827 474.03743,367.18327 467.98543,358.70627 465.43143,356.18427 460.70743,358.67327 457.27143,357.63527 452.88643,356.31127 448.39943,354.41227 445.12843,351.20627 442.50243,348.63327 439.00943,347.51827 439.77143,341.56427 436.07043,337.42927 429.15643,336.61727 426.19943,331.92127 424.33343,328.95627 425.36143,324.93627 424.41343,321.56427 422.75243,315.64727 419.40443,310.30427 417.62843,304.42127 415.97443,298.94527 415.86643,293.06227 414.05643,287.63527 412.35543,282.53227 410.17943,277.51827 407.27143,272.99227 406.08443,271.14627 404.12243,269.87027 402.98543,267.99227 399.33243,261.96027 396.56943,255.25327 395.12843,248.34927 394.34943,244.61827 393.89743,240.63127 394.77143,236.92127 396.38343,230.07727 401.82443,224.73327 404.77143,218.34927 405.73443,216.26227 407.12643,214.21627 407.27143,211.92127 407.36343,210.45127 406.07243,209.10227 406.19943,207.63527 406.40243,205.29927 408.71643,203.52727 409.05643,201.20727 406.67543,195.82627 408.10143,188.55627 407.11443,184.82127 M 347.58543,323.27827 C 344.73543,321.21227 339.03443,317.08027 338.98543,312.47827 338.96643,310.71827 340.49043,307.80327 342.18543,308.27827 344.63843,308.96527 341.70843,312.28427 342.98543,315.87827 346.79043,312.53527 346.12643,306.02127 350.38543,304.47827 353.99343,303.17127 356.28143,308.78627 361.38543,307.87827 360.08943,304.96427 358.65743,304.47227 358.78543,302.47827 358.98843,299.30427 360.88543,295.18927 363.98543,294.47827 367.25043,293.73027 370.87843,296.79627 372.58543,299.67827 374.18343,302.37627 371.56243,305.31327 372.98543,309.07827 377.95043,306.11227 377.69643,303.45627 380.98543,303.27827 383.13243,303.16227 384.76943,305.41827 386.58543,306.47827 389.46943,305.21127 390.60543,303.11727 392.98543,303.27827 394.75643,303.39827 396.59943,304.06727 397.71843,305.44527 399.03843,307.06827 400.11443,309.17227 399.78543,312.07827 397.19243,315.95827 393.25943,313.41727 385.78543,312.07827 376.03443,312.64927 372.04243,314.45927 365.38543,316.47827 359.48543,318.26727 351.95243,321.60827 348.18543,323.27827 M 405.65243,307.94527 C 405.25543,306.20527 404.46143,302.72727 406.31843,302.11127 412.19643,301.77027 412.13543,307.03527 413.98543,310.27827 415.56243,313.04227 416.55843,316.53027 416.65243,319.44527 413.59843,319.22727 411.86843,318.87127 409.31843,318.61127 407.61943,314.84227 406.36343,311.46627 405.81843,308.94527 M 380.98543,249.61127 C 381.42743,256.11627 382.14543,267.95827 381.15243,278.77827 380.41343,284.91827 379.06943,289.38827 376.65243,296.77827 378.45243,284.47927 379.57743,280.60027 379.98543,272.44527 380.33543,265.45227 380.32143,260.54627 379.15243,251.44527 379.44143,250.62627 380.35943,249.83927 380.81843,249.44527 M 375.81843,266.94527 C 374.33543,269.72927 372.37043,272.96527 369.81843,276.94527 365.45743,281.70827 364.75943,282.28927 356.81843,295.94527 361.63243,283.38327 363.22643,283.61127 366.98543,277.77827 370.17543,273.10327 373.77143,268.38627 375.81843,265.77827 M 389.15243,249.11127 C 391.05143,255.25327 391.01643,260.86927 393.15243,270.94527 392.73943,271.66027 391.51343,272.22527 390.81843,271.77827 389.29943,260.45927 388.36743,255.61627 388.98543,249.77827"
     inkscape:connector-curvature="0"
     style="fill:#003c69;fill-opacity:1" />
  <path
     id="path3346"
     d="M 99.16042,372.07126 99.16042,401.82126 93.76042,401.82126 93.76042,372.07126 88.16042,372.07126 88.16042,367.02126 104.76042,367.02126 104.76042,372.07126 z M 107.50242,377.07126 112.90242,377.07126 112.90242,379.82126 113.05242,379.82126 C 113.68742,378.55926 114.43742,377.73426 115.30242,377.34926 116.17142,376.96826 117.20242,376.77426 118.40242,376.77126 L 118.90242,376.77126 118.90242,382.52126 C 118.63342,382.49026 118.38342,382.46826 118.14642,382.44926 117.91242,382.43426 117.67742,382.42426 117.44042,382.42126 115.99642,382.42426 114.87742,382.76826 114.08742,383.44926 113.29942,384.13426 112.90242,385.34026 112.90242,387.07126 L 112.90242,401.82126 107.50242,401.82126 z M 126.85142,383.23726 C 126.72042,383.54326 126.63042,384.02126 126.58042,384.67726 126.53042,385.33426 126.48942,386.11526 126.45842,387.02126 L 131.00842,387.02126 131.00842,384.90226 C 131.00842,384.09626 130.87042,383.37426 130.58942,382.73426 130.30842,382.09626 129.72342,381.77426 128.83042,381.77126 127.87342,381.77426 127.21442,382.26226 126.85142,383.23726 z M 126.40842,390.72126 C 126.40842,391.65226 126.41742,392.54626 126.43342,393.40226 126.45142,394.26526 126.52642,394.92426 126.65842,395.38726 126.98942,396.51226 127.71442,397.07426 128.83342,397.07126 130.15142,397.07426 130.89542,396.12426 131.05842,394.22126 L 136.40842,395.07126 C 136.27642,397.28426 135.56142,399.01226 134.26442,400.25526 132.97042,401.50226 131.12642,402.12126 128.73342,402.12126 127.57042,402.12126 126.57342,401.98026 125.74242,401.69926 124.91142,401.41826 124.20542,401.04326 123.62342,400.57426 123.04242,400.10926 122.58642,399.57426 122.25542,398.97426 121.92342,398.37426 121.67342,397.77426 121.50542,397.17126 121.40542,396.77426 121.32342,396.27426 121.25542,395.67426 121.18942,395.07426 121.13942,394.43426 121.10842,393.74926 121.07642,393.06826 121.05142,392.36826 121.03342,391.64926 121.01742,390.93426 121.00842,390.25926 121.00842,389.62126 121.00842,388.02426 121.06742,386.42426 121.18342,384.82426 121.29842,383.22426 121.52342,381.99026 121.85542,381.12126 122.32042,379.79026 123.13342,378.72426 124.29542,377.92426 125.45842,377.12426 127.00542,376.72426 128.93042,376.72126 131.39242,376.72426 133.25142,377.40926 134.51442,378.77426 135.77642,380.14326 136.40842,382.07426 136.40842,384.57126 L 136.40842,390.72126 z M 147.30642,402.12126 C 146.10642,402.12126 145.06642,402.01526 144.18142,401.79926 143.30042,401.58426 142.56642,401.20926 141.98142,400.67426 141.40042,400.14326 140.96642,399.43426 140.68142,398.54926 140.40042,397.66826 140.25642,396.57426 140.25642,395.27126 L 140.25642,365.52126 145.65642,365.52126 145.65642,394.47126 C 145.65642,395.44026 145.80342,396.13426 146.09142,396.54926 146.37842,396.96826 146.91342,397.17426 147.69442,397.17126 L 148.30642,397.17126 148.30642,402.12126 z M 158.41542,402.12126 C 157.21542,402.12126 156.17442,402.01526 155.29042,401.79926 154.40942,401.58426 153.67442,401.20926 153.09042,400.67426 152.50942,400.14326 152.07442,399.43426 151.79042,398.54926 151.50942,397.66826 151.36542,396.57426 151.36542,395.27126 L 151.36542,365.52126 156.76542,365.52126 156.76542,394.47126 C 156.76542,395.44026 156.91242,396.13426 157.19942,396.54926 157.48742,396.96826 158.02142,397.17426 158.80242,397.17126 L 159.41542,397.17126 159.41542,402.12126 z M 167.86742,383.23726 C 167.73642,383.54326 167.64542,384.02126 167.59542,384.67726 167.54542,385.33426 167.50542,386.11526 167.47342,387.02126 L 172.02342,387.02126 172.02342,384.90226 C 172.02342,384.09626 171.88642,383.37426 171.60542,382.73426 171.32342,382.09626 170.73942,381.77426 169.84542,381.77126 168.88942,381.77426 168.23042,382.26226 167.86742,383.23726 z M 167.42342,390.72126 C 167.42342,391.65226 167.43342,392.54626 167.44842,393.40226 167.46742,394.26526 167.54242,394.92426 167.67342,395.38726 168.00542,396.51226 168.73042,397.07426 169.84842,397.07126 171.16742,397.07426 171.91142,396.12426 172.07342,394.22126 L 177.42342,395.07126 C 177.29242,397.28426 176.57642,399.01226 175.28042,400.25526 173.98642,401.50226 172.14242,402.12126 169.74842,402.12126 168.58642,402.12126 167.58942,401.98026 166.75842,401.69926 165.92642,401.41826 165.22042,401.04326 164.63942,400.57426 164.05842,400.10926 163.60142,399.57426 163.27042,398.97426 162.93942,398.37426 162.68942,397.77426 162.52042,397.17126 162.42042,396.77426 162.33942,396.27426 162.27042,395.67426 162.20542,395.07426 162.15542,394.43426 162.12342,393.74926 162.09242,393.06826 162.06742,392.36826 162.04842,391.64926 162.03342,390.93426 162.02342,390.25926 162.02342,389.62126 162.02342,388.02426 162.08342,386.42426 162.19842,384.82426 162.31442,383.22426 162.53942,381.99026 162.87042,381.12126 163.33642,379.79026 164.14842,378.72426 165.31142,377.92426 166.47342,377.12426 168.02042,376.72426 169.94542,376.72126 172.40842,376.72426 174.26742,377.40926 175.53042,378.77426 176.79242,380.14326 177.42342,382.07426 177.42342,384.57126 L 177.42342,390.72126 z M 188.82242,396.92126 C 189.35642,396.92426 189.77242,396.80926 190.07242,396.57426 190.37242,396.34326 190.60642,396.05926 190.77242,395.72126 191.00642,395.29026 191.15642,394.56826 191.22242,393.54926 191.29142,392.53426 191.32242,391.25926 191.32242,389.72126 191.32242,388.19026 191.30642,386.86826 191.27242,385.74926 191.24142,384.63426 191.09142,383.79026 190.82242,383.22126 190.65642,382.82426 190.42242,382.51826 190.12242,382.29926 189.82242,382.08426 189.39142,381.97426 188.82242,381.97126 187.85642,381.97426 187.17242,382.40926 186.77242,383.27126 186.54142,383.67426 186.42242,384.15926 186.42242,384.72126 186.39142,385.49026 186.38142,386.33426 186.39742,387.24926 186.41642,388.16826 186.40642,389.20926 186.37242,390.37126 186.37242,391.00926 186.38142,391.62426 186.39742,392.22426 186.41642,392.82426 186.42242,393.40926 186.42242,393.97126 186.45642,394.80926 186.65642,395.50926 187.02242,396.07426 187.39142,396.64326 187.99142,396.92426 188.82242,396.92126 z M 190.72242,402.12126 C 189.75642,402.12126 188.93142,401.95626 188.24742,401.62426 187.56642,401.29326 186.99142,400.72426 186.52242,399.92126 186.49142,399.92426 186.46642,399.93426 186.44742,399.94926 186.43142,399.96826 186.40642,399.97426 186.37242,399.97126 L 186.37242,401.82126 181.02242,401.82126 181.02242,365.52126 186.42242,365.52126 186.42242,379.02126 186.62242,379.02126 C 187.09142,378.25926 187.76642,377.69326 188.64742,377.32426 189.53142,376.95926 190.29142,376.77426 190.92242,376.77126 191.79142,376.77426 192.51642,376.86826 193.09742,377.04926 193.68142,377.23426 194.17242,377.49326 194.57242,377.82426 194.97242,378.15926 195.29142,378.54926 195.52242,378.99926 195.75642,379.44926 195.97242,379.92426 196.17242,380.42126 196.44142,381.19026 196.62242,382.15926 196.72242,383.32426 196.82242,384.49326 196.87242,385.72426 196.87242,387.02126 L 196.87242,389.27126 C 196.87242,390.47426 196.84742,391.64326 196.79742,392.77426 196.74742,393.90926 196.69142,394.90926 196.62242,395.77126 196.49142,397.07426 196.23142,398.13426 195.84742,398.94926 195.46642,399.76826 195.00642,400.40926 194.47242,400.87426 193.94142,401.34326 193.34742,401.66526 192.69742,401.84626 192.04742,402.03026 191.39142,402.12126 190.72242,402.12126 z M 208.08242,381.72126 C 207.29242,381.72426 206.69842,382.02426 206.30142,382.62126 205.83942,383.42426 205.58542,384.39326 205.53542,385.52426 205.48542,386.65926 205.46042,388.19026 205.46042,390.12126 L 205.46042,390.52126 C 205.46042,391.42426 205.47042,392.29326 205.48542,393.12426 205.50442,393.95926 205.57942,394.62426 205.71042,395.12126 205.87642,395.69026 206.13942,396.16826 206.50142,396.54926 206.86442,396.93426 207.39242,397.12426 208.08242,397.12126 208.61042,397.12426 209.06442,396.96826 209.44242,396.64926 209.82342,396.33426 210.07942,395.94026 210.21042,395.47126 210.24542,395.34026 210.28542,395.08426 210.33542,394.69926 210.38542,394.31826 210.42942,393.84926 210.46042,393.29926 210.49542,392.74926 210.52042,392.15926 210.53542,391.52426 210.55442,390.89326 210.56042,390.25926 210.56042,389.62126 210.56042,388.45926 210.54542,387.32426 210.51042,386.22426 210.47942,385.12426 210.39542,384.29026 210.26042,383.72126 210.19542,383.35926 210.07942,383.05926 209.91442,382.82126 209.55142,382.09026 208.94242,381.72426 208.08242,381.72126 z M 208.11042,376.72126 C 209.44542,376.72426 210.57042,376.89926 211.48542,377.24926 212.40442,377.59926 213.15442,378.07426 213.73542,378.67426 214.32042,379.27426 214.75442,379.97426 215.03542,380.77426 215.32042,381.57426 215.51042,382.44026 215.61042,383.37126 215.67942,384.34026 215.73542,385.40926 215.78542,386.57426 215.83542,387.74326 215.86042,388.80926 215.86042,389.77126 L 215.86042,391.07126 C 215.86042,391.84026 215.83542,392.60926 215.78542,393.37426 215.73542,394.14326 215.67942,394.89026 215.61042,395.62126 215.44542,396.99026 215.08542,398.10926 214.53542,398.97426 213.98542,399.84326 213.33542,400.50926 212.58542,400.97426 211.83542,401.44326 211.02942,401.75926 210.16042,401.92126 209.29542,402.09026 208.44542,402.17126 207.61042,402.17126 206.44542,402.17126 205.43542,402.01526 204.58542,401.69926 203.73542,401.38426 203.02042,400.95926 202.43542,400.42426 201.85442,399.89326 201.40442,399.28426 201.08542,398.59926 200.77042,397.91826 200.54542,397.19026 200.41042,396.42126 200.34542,395.99026 200.28542,395.49926 200.23542,394.94926 200.18542,394.39926 200.14542,393.82426 200.11042,393.22426 200.07942,392.62426 200.06042,392.01826 200.06042,391.39926 200.06042,390.78426 200.06042,390.20926 200.06042,389.67126 200.06042,388.87426 200.07942,388.04926 200.11042,387.19926 200.14542,386.34926 200.19542,385.54326 200.26042,384.77426 200.32942,384.00926 200.41042,383.29326 200.51042,382.62426 200.61042,381.95926 200.74542,381.42426 200.91042,381.02126 201.37942,379.75926 202.21042,378.72426 203.41042,377.92426 204.61042,377.12426 206.17942,376.72426 208.11042,376.72126 z M 220.00242,377.07126 225.40242,377.07126 225.40242,379.82126 225.55242,379.82126 C 226.18742,378.55926 226.93742,377.73426 227.80242,377.34926 228.67142,376.96826 229.70242,376.77426 230.90242,376.77126 L 231.40242,376.77126 231.40242,382.52126 C 231.13342,382.49026 230.88342,382.46826 230.64642,382.44926 230.41242,382.43426 230.17742,382.42426 229.94042,382.42126 228.49642,382.42426 227.37742,382.76826 226.58742,383.44926 225.79942,384.13426 225.40242,385.34026 225.40242,387.07126 L 225.40242,401.82126 220.00242,401.82126 z M 241.53342,382.02126 C 240.99542,382.02426 240.57342,382.13426 240.27042,382.34926 239.96742,382.56826 239.73042,382.85926 239.56142,383.22126 239.36142,383.65926 239.21742,384.38426 239.13342,385.39926 239.05142,386.41826 239.00842,387.69026 239.00842,389.22126 239.00842,390.72426 239.03342,392.00926 239.08342,393.07426 239.13342,394.14326 239.27642,394.95926 239.51142,395.52126 239.88342,396.35926 240.55842,396.77426 241.53342,396.77126 242.40842,396.77426 243.03942,396.44326 243.42642,395.77426 243.81442,395.10926 244.00842,394.37426 244.00842,393.57126 L 244.00842,388.57126 C 244.00842,387.94026 244.00142,387.32426 243.98342,386.72426 243.96742,386.12426 243.95842,385.54026 243.95842,384.97126 243.92342,384.14026 243.72042,383.44926 243.35142,382.89926 242.98342,382.34926 242.37642,382.05926 241.53342,382.02126 z M 243.80842,399.72126 C 243.34242,400.49026 242.65842,401.04926 241.75842,401.39926 240.85842,401.74926 240.09242,401.92126 239.45842,401.92126 238.49242,401.92126 237.68342,401.79926 237.03342,401.54926 236.38342,401.29926 235.85842,400.95926 235.45842,400.52426 235.05842,400.09326 234.74242,399.58426 234.50842,398.99926 234.27642,398.41826 234.07642,397.77426 233.90842,397.07126 233.74242,396.40926 233.62642,395.58426 233.55842,394.59926 233.49242,393.61826 233.45842,392.60926 233.45842,391.57126 L 233.45842,389.42126 C 233.45842,388.25926 233.47642,387.14326 233.50842,386.07426 233.54242,385.00926 233.60842,384.04026 233.70842,383.17126 233.94242,380.87426 234.61742,379.24326 235.73342,378.27426 236.85142,377.30926 238.15842,376.82426 239.65842,376.82126 240.62642,376.82426 241.45142,376.99326 242.13342,377.32426 242.81742,377.65926 243.39242,378.22426 243.85842,379.02126 243.89242,379.02426 243.91742,379.01826 243.93342,378.99926 243.95142,378.98426 243.97642,378.97426 244.00842,378.97126 L 244.00842,377.12126 249.35842,377.12126 249.35842,403.22126 C 249.35842,405.79026 248.76742,407.84626 247.58342,409.39626 246.40142,410.94626 244.39242,411.72126 241.55842,411.72126 239.22642,411.72126 237.40842,411.13426 236.10842,409.95626 234.80842,408.77726 234.10842,407.08426 234.00842,404.87126 234.86742,404.74026 235.74242,404.60526 236.63342,404.47126 237.52642,404.34026 238.40142,404.19026 239.25842,404.02126 239.32642,405.79026 240.11742,406.67126 241.63342,406.67126 242.44242,406.67126 243.03342,406.39326 243.40142,405.83126 243.77342,405.27126 243.95842,404.61226 243.95842,403.85226 L 243.95842,399.72126 z M 258.26242,394.27126 C 258.23142,395.17426 258.41842,395.89326 258.83142,396.42426 259.24342,396.95926 259.83142,397.22426 260.58742,397.22126 261.38142,397.22426 261.97542,396.99926 262.36842,396.54926 262.76542,396.09926 262.96242,395.47426 262.96242,394.67126 262.96242,393.64026 262.78142,392.91826 262.41242,392.49926 262.04642,392.08426 261.36242,391.69026 260.36242,391.32126 259.26242,390.92426 258.26242,390.51826 257.36242,390.09926 256.46242,389.68426 255.70642,389.19326 255.08742,388.62426 254.47242,388.05926 253.99642,387.39326 253.66242,386.62426 253.33142,385.85926 253.16242,384.92426 253.16242,383.82126 253.16242,381.82426 253.80642,380.14326 255.08742,378.77426 256.37142,377.40926 258.26242,376.72426 260.76242,376.72126 263.36242,376.72426 265.25642,377.37426 266.43742,378.67426 267.62142,379.97426 268.21242,381.72426 268.21242,383.92126 L 262.91242,384.62126 C 262.94642,383.72426 262.77542,383.00926 262.39342,382.47426 262.01542,381.94326 261.46242,381.67426 260.73742,381.67126 259.88142,381.67426 259.30342,381.92426 259.00642,382.42426 258.71242,382.92426 258.56242,383.42426 258.56242,383.92126 258.56242,384.59026 258.72242,385.14326 259.03442,385.57426 259.35042,386.00926 260.08742,386.40926 261.24642,386.77126 262.47542,387.17426 263.52842,387.59926 264.40642,388.04926 265.28742,388.49926 266.00942,389.02426 266.57142,389.62426 267.13442,390.22426 267.55042,390.92426 267.81542,391.72426 268.08142,392.52426 268.21242,393.49026 268.21242,394.62126 268.21242,395.69026 268.08142,396.67426 267.81242,397.57426 267.54642,398.47426 267.10642,399.26826 266.48742,399.94926 265.87142,400.63426 265.08142,401.16826 264.11242,401.54926 263.14642,401.93026 261.96242,402.12126 260.56242,402.12126 258.13142,402.12126 256.25642,401.52426 254.93742,400.32426 253.62142,399.12426 252.93142,397.37426 252.86242,395.07126 z M 292.31042,384.12126 C 292.31042,382.42426 291.92942,381.16826 291.16042,380.34926 290.39442,379.53426 289.31042,379.12426 287.91042,379.12126 287.07942,379.12426 286.38542,379.24326 285.83542,379.47426 285.28542,379.70926 284.85442,380.02426 284.53542,380.42426 284.21942,380.82426 284.00442,381.27426 283.88542,381.77426 283.76942,382.27426 283.71042,382.79026 283.71042,383.32126 283.71042,383.82426 283.76942,384.27426 283.88542,384.67426 284.00442,385.07426 284.23542,385.45926 284.58542,385.82426 284.93542,386.19326 285.45442,386.55926 286.13542,386.92426 286.81942,387.29326 287.71042,387.69026 288.81042,388.12126 290.04442,388.59026 291.02942,389.07426 291.76042,389.57426 292.49442,390.07426 293.04442,390.61826 293.41042,391.19926 293.77942,391.78426 294.01942,392.41826 294.13542,393.09926 294.25442,393.78426 294.31042,394.52426 294.31042,395.32126 294.31042,396.29026 294.19442,397.19326 293.96042,398.02426 293.72942,398.85926 293.35442,399.57426 292.83542,400.17426 292.31942,400.77426 291.63542,401.24926 290.78542,401.59926 289.93542,401.94926 288.91042,402.12126 287.71042,402.12126 285.71042,402.12126 284.12942,401.59326 282.96042,400.52426 281.79442,399.45926 281.17942,397.77426 281.11042,395.47126 L 283.26042,395.07126 C 283.26042,396.77426 283.64442,398.03426 284.41042,398.84926 285.17942,399.66826 286.29442,400.07426 287.76042,400.07126 289.39442,400.04026 290.52942,399.60926 291.16042,398.77426 291.79442,397.94326 292.11042,396.80926 292.11042,395.37126 292.11042,394.67426 292.06042,394.07426 291.96042,393.57426 291.86042,393.07426 291.66042,392.61826 291.36042,392.19926 291.06042,391.78426 290.61942,391.39926 290.03542,391.04926 289.45442,390.69926 288.66042,390.34026 287.66042,389.97126 286.39442,389.47426 285.36042,388.98426 284.56042,388.49926 283.76042,388.01826 283.12942,387.49926 282.66042,386.94926 282.19442,386.39926 281.87942,385.83426 281.71042,385.24926 281.54442,384.66826 281.46042,384.02426 281.46042,383.32126 281.46042,381.45926 281.98542,379.94326 283.03542,378.77426 284.08542,377.60926 285.74442,377.02426 288.01042,377.02126 288.94442,377.02426 289.80442,377.15926 290.58542,377.42426 291.36942,377.69326 292.04442,378.09926 292.61042,378.64926 293.17942,379.19926 293.62942,379.89926 293.96042,380.74926 294.29442,381.59926 294.46042,382.59026 294.46042,383.72126 z M 304.15842,402.12126 C 303.19342,402.12126 302.34342,401.99926 301.60842,401.74926 300.87742,401.49926 300.25842,401.17426 299.75842,400.77426 299.25842,400.37426 298.85842,399.90926 298.55842,399.37426 298.25842,398.84326 298.04342,398.29026 297.90842,397.72126 297.80842,397.32426 297.72742,396.80926 297.65842,396.17426 297.59342,395.54326 297.55242,394.85926 297.53342,394.12426 297.51842,393.39326 297.50242,392.65926 297.48342,391.92426 297.46842,391.19326 297.45842,390.50926 297.45842,389.87126 297.45842,389.00926 297.46842,388.13426 297.48342,387.24926 297.50242,386.36826 297.53342,385.52426 297.58342,384.72426 297.63342,383.92426 297.70242,383.19926 297.78342,382.54926 297.86842,381.89926 297.97742,381.37426 298.10842,380.97126 298.47742,379.80926 299.17742,378.85926 300.20842,378.12426 301.24342,377.39326 302.60842,377.02426 304.30842,377.02126 306.20842,377.02426 307.73342,377.56826 308.88342,378.64926 310.03342,379.73426 310.60842,381.42426 310.60842,383.72126 L 308.45842,384.12126 C 308.45842,380.79026 307.02742,379.12426 304.15842,379.12126 303.35842,379.12426 302.59342,379.29926 301.85842,379.64926 301.12742,379.99926 300.55842,380.65926 300.15842,381.62126 299.92742,382.19026 299.78342,383.21826 299.73342,384.69926 299.68342,386.18426 299.65842,387.92426 299.65842,389.92126 L 299.65842,390.77126 C 299.65842,391.37426 299.66842,391.99926 299.68342,392.64926 299.70242,393.29926 299.72742,393.93426 299.75842,394.54926 299.79342,395.16826 299.83342,395.73426 299.88342,396.24926 299.93342,396.76826 299.99342,397.15926 300.05842,397.42126 300.32742,398.25926 300.78342,398.90926 301.43342,399.37426 302.08342,399.84326 302.95842,400.07426 304.05842,400.07126 305.45842,400.07426 306.53342,399.70926 307.28342,398.97426 308.03342,398.24326 308.44342,396.94026 308.50842,395.07126 L 310.60842,395.47126 C 310.54342,397.77426 309.92742,399.45926 308.75842,400.52426 307.59342,401.59326 306.05842,402.12126 304.15842,402.12126 z M 327.11642,396.12126 C 327.01642,397.25926 326.75942,398.20926 326.34142,398.97426 325.92542,399.74326 325.41642,400.35926 324.81642,400.82426 324.21642,401.29326 323.55042,401.62426 322.81642,401.82126 322.08442,402.02126 321.36642,402.12126 320.66642,402.12126 318.70042,402.12126 317.22542,401.74326 316.24142,400.97426 315.25942,400.20926 314.58442,399.12426 314.21642,397.72126 314.08442,397.32426 314.00042,396.80926 313.96642,396.17426 313.93442,395.54326 313.90042,394.85926 313.86642,394.12126 313.83442,393.42426 313.81642,392.70926 313.81642,391.97426 313.81642,391.24326 313.81642,390.54026 313.81642,389.87126 313.81642,389.00926 313.81642,388.12426 313.81642,387.22426 313.81642,386.32426 313.84142,385.46826 313.89142,384.64926 313.94142,383.83426 314.00042,383.09326 314.06642,382.42426 314.13442,381.75926 314.25042,381.22426 314.41642,380.82126 314.81642,379.62426 315.53442,378.69326 316.56642,378.02426 317.60042,377.35926 318.96642,377.02426 320.66642,377.02126 322.46642,377.02426 323.82542,377.39326 324.74142,378.12426 325.65942,378.85926 326.31642,379.75926 326.71642,380.82126 326.85042,381.32426 326.95942,381.92426 327.04142,382.62426 327.12542,383.32426 327.18442,384.06826 327.21642,384.84926 327.25042,385.63426 327.27542,386.43426 327.29142,387.24926 327.30942,388.06826 327.31642,388.84026 327.31642,389.57126 L 327.31642,390.57126 C 327.31642,391.44026 327.30942,392.31826 327.29142,393.19926 327.27542,394.08426 327.21642,395.05926 327.11642,396.12126 z M 324.76642,381.87126 C 324.50042,380.94026 324.00042,380.24926 323.26642,379.79926 322.53442,379.34926 321.65042,379.12426 320.61642,379.12126 319.78442,379.12426 318.97542,379.28426 318.19142,379.59926 317.40942,379.91826 316.83442,380.55926 316.46642,381.52126 316.23442,382.15926 316.08442,383.22426 316.01642,384.72126 315.98442,385.49026 315.96642,386.30926 315.96642,387.17426 315.96642,388.04326 315.96642,388.95926 315.96642,389.92126 L 315.96642,390.77126 C 315.96642,392.60926 316.00042,394.04326 316.06642,395.07426 316.13442,396.10926 316.25042,396.90926 316.41642,397.47126 316.68442,398.27426 317.14142,398.90926 317.79142,399.37426 318.44142,399.84326 319.38442,400.07426 320.61642,400.07126 321.58442,400.07426 322.45042,399.82426 323.21642,399.32426 323.98442,398.82426 324.53442,398.02426 324.86642,396.92126 325.03442,396.45926 325.13442,395.62426 325.16642,394.42426 325.20042,393.22426 325.21642,391.84026 325.21642,390.27126 325.21642,389.54026 325.20942,388.74326 325.19142,387.87426 325.17542,387.00926 325.15042,386.18426 325.11642,385.39926 325.08442,384.61826 325.04142,383.90926 324.99142,383.27426 324.94142,382.64326 324.86642,382.17426 324.76642,381.87126 z M 342.55442,399.92126 C 341.95442,400.65926 341.23942,401.21826 340.40442,401.59926 339.57342,401.98126 338.68942,402.17126 337.75442,402.17126 336.48942,402.17126 335.45442,401.98126 334.65442,401.59926 333.85442,401.21826 333.22342,400.69926 332.75442,400.04926 332.28942,399.39926 331.96442,398.66826 331.77942,397.84926 331.59842,397.03426 331.50442,396.17426 331.50442,395.27126 L 331.50442,377.42126 333.65442,377.42126 333.65442,394.77126 C 333.65442,396.30926 333.92342,397.56826 334.45442,398.54926 334.98942,399.53426 336.08942,400.02426 337.75442,400.02126 338.52342,400.02426 339.20442,399.85926 339.80442,399.52426 340.40442,399.19326 340.90442,398.75926 341.30442,398.22426 341.70442,397.69326 342.01442,397.08426 342.22942,396.39926 342.44842,395.71826 342.55442,395.02426 342.55442,394.32126 L 342.55442,377.42126 344.65442,377.42126 344.65442,401.77126 342.55442,401.77126 z M 355.60642,401.77126 C 354.20642,401.77126 353.01542,401.33426 352.03142,400.44926 351.04942,399.56826 350.55642,398.05926 350.55642,395.92126 L 350.55642,379.22126 347.95642,379.22126 347.95642,377.22126 350.55642,377.22126 350.55642,370.42126 352.55642,370.42126 352.55642,377.22126 356.10642,377.22126 356.10642,379.22126 352.55642,379.22126 352.55642,396.17126 C 352.55642,397.24026 352.77442,398.09926 353.20642,398.74926 353.64042,399.39926 354.44042,399.72426 355.60642,399.72126 L 356.45642,399.72126 356.45642,401.77126 z M 371.75042,401.77126 365.90042,388.37126 361.70042,395.07126 361.70042,401.77126 359.60042,401.77126 359.60042,365.42126 361.70042,365.42126 361.70042,391.22126 370.40042,377.17126 372.90042,377.17126 367.25042,386.17126 374.10042,401.77126 z M 382.65242,374.82126 C 381.58642,374.82426 380.67142,374.41826 379.90242,373.59926 379.13642,372.78426 378.75242,371.79026 378.75242,370.62126 378.75242,369.39026 379.13642,368.36826 379.90242,367.54926 380.67142,366.73426 381.58642,366.32426 382.65242,366.32126 383.78642,366.32426 384.73642,366.73426 385.50242,367.54926 386.27142,368.36826 386.65242,369.39026 386.65242,370.62126 386.65242,371.79026 386.27142,372.78426 385.50242,373.59926 384.73642,374.41826 383.78642,374.82426 382.65242,374.82126 z M 386.60242,400.27126 C 385.77142,401.07426 384.89642,401.57426 383.97742,401.77126 383.06142,401.97126 382.23642,402.07126 381.50242,402.07126 380.33642,402.07126 379.36142,401.87426 378.57742,401.47426 377.79642,401.07426 377.16142,400.54926 376.67742,399.89926 376.19642,399.24926 375.84642,398.49926 375.62742,397.64926 375.41142,396.79926 375.30242,395.92426 375.30242,395.02126 375.30242,394.09026 375.41142,393.14926 375.62742,392.19926 375.84642,391.24926 376.21142,390.39326 376.72742,389.62426 377.24642,388.85926 377.94642,388.23426 378.82742,387.74926 379.71142,387.26826 380.83642,387.02426 382.20242,387.02126 L 386.60242,387.02126 386.60242,383.47126 C 386.60242,382.77426 386.55242,382.14326 386.45242,381.57426 386.35242,381.00926 386.14642,380.51826 385.82742,380.09926 385.51142,379.68426 385.07742,379.36826 384.52742,379.14926 383.97742,378.93426 383.25242,378.82426 382.35242,378.82126 381.18642,378.82426 380.23642,379.09926 379.50242,379.64926 378.77142,380.19926 378.22142,380.92426 377.85242,381.82126 L 375.85242,380.97126 C 376.45242,379.57426 377.27742,378.51826 378.32742,377.79926 379.37742,377.08426 380.73642,376.72426 382.40242,376.72126 384.40242,376.72426 385.96142,377.21826 387.07742,378.19926 388.19642,379.18426 388.75242,380.90926 388.75242,383.37126 L 388.75242,401.77126 386.60242,401.77126 z M 382.65242,368.22126 C 382.12142,368.22426 381.63642,368.44926 381.20242,368.89926 380.77142,369.34926 380.55242,369.92426 380.55242,370.62126 380.55242,371.25926 380.77142,371.79926 381.20242,372.24926 381.63642,372.69926 382.12142,372.92426 382.65242,372.92126 383.25242,372.92426 383.77142,372.69926 384.20242,372.24926 384.63642,371.79926 384.85242,371.25926 384.85242,370.62126 384.85242,369.95926 384.63642,369.39326 384.20242,368.92426 383.77142,368.45926 383.25242,368.22426 382.65242,368.22126 z M 386.60242,389.17126 382.35242,389.17126 C 380.92142,389.17426 379.73642,389.62426 378.80242,390.52426 377.87142,391.42426 377.40242,392.97426 377.40242,395.17126 377.40242,395.80926 377.47742,396.41826 377.62742,396.99926 377.77742,397.58426 378.02742,398.09926 378.37742,398.54926 378.72742,398.99926 379.19642,399.35926 379.77742,399.62426 380.36142,399.89326 381.07142,400.02426 381.90242,400.02126 383.27142,400.02426 384.39642,399.66826 385.27742,398.94926 386.16142,398.23426 386.60242,397.14026 386.60242,395.67126 z M 395.70142,379.57126 C 396.73542,377.87426 398.23542,377.02426 400.20142,377.02126 L 400.80142,377.02126 C 401.00142,377.02426 401.33542,377.10926 401.80142,377.27126 L 401.80142,379.57126 C 401.43542,379.44026 401.19542,379.35926 401.07642,379.32426 400.96042,379.29326 400.87042,379.27426 400.80142,379.27126 L 400.30142,379.27126 C 398.87042,379.27426 397.74542,379.86826 396.92642,381.04926 396.11042,382.23426 395.70142,383.89026 395.70142,386.02126 L 395.70142,401.77126 393.70142,401.77126 393.70142,377.42126 395.70142,377.42126 z"
     inkscape:connector-curvature="0"
     style="fill:#ffffff;fill-opacity:1" />
</svg>
